<svg version="1.0" xmlns="http://www.w3.org/2000/svg" width="160" height="53.333" viewBox="0 0 932 328"><g fill="#fff"><path d="M182 25.1c-29.6 1.6-64.5 5.7-74 8.6-7.3 2.3-16.6 8.8-21.3 14.9-6 7.9-17.5 27.6-24.9 42.8-3.8 7.8-7.4 15.2-8.1 16.5-2.1 4.2-3.7 3.7-3.7-1.1 0-6.4-1.7-11.4-4.7-13.8-2.3-1.8-4-2-16.7-2-11.8 0-14.4.3-16.2 1.8C9.1 95.4 8 98.3 8 104.2c.1 12.5 3.2 17.1 12.2 18.2 14.4 1.8 14.9 2.1 11.5 8.8-2.3 4.6-4.7 13.3-4.7 17.2 0 1.7-1 4-2.2 5.4-2.9 3-3.6 11.2-2.6 31.2.4 8 1 39 1.4 69 .5 44.6.8 54.9 2 57.2l1.5 2.8h42l1.5-3.5c1-2.4 1.4-7.4 1.4-16.9V280l16.8-.2 16.7-.3.3-5.3.3-5.2h220.8l.3 5.2.3 5.3 16.5.5 16.5.5.5 14.5c.3 9.1 1 15.3 1.8 16.7 1.3 2.3 1.5 2.3 22.2 2.3s20.9 0 22.2-2.3c1-1.7 1.5-15.8 2.1-58.7 1.5-98.7 1.5-96.5-.9-99.2-1.3-1.5-2.5-4.8-3.2-9.1-.6-3.7-2.2-9.2-3.6-12.2-3.8-8.3-3.5-8.5 10.6-10 7.5-.8 10.3-3.1 11.7-9.6 1.4-6.6 1.4-13.2-.1-16.4-2.1-4.6-5.4-5.5-20.2-5.5-13.4 0-13.6 0-16.6 2.7-2.1 2-3.2 4-3.6 6.8-1.1 8.8-1.5 10.5-2.4 10-.4-.3-4.9-8.7-9.8-18.8-10.1-20.4-22.6-41.1-28.3-46.8-9-9-16.6-12-37.9-14.8-42.2-5.5-83.3-7.2-123-5zm63.5 1.9c33.1 1.6 69.3 5.6 78.4 8.7 4.7 1.5 11.5 5.2 10.9 5.9-.2.2-2.5-.3-5-1.1-4.9-1.4-36.1-5.7-54.5-7.5-34.3-3.2-86.3-3-122.8.5-21 2.1-46.9 6-52.2 7.9-2.4.8-4.3 1.3-4.3 1.1 0-.8 8.7-5.4 13.1-6.8 2.5-.9 11.5-2.5 20-3.6 40.8-5.4 77.8-7 116.4-5.1zm20.5 7.6c25.4 1.9 55.4 5.8 64 8.4 6.4 1.9 16.7 7.6 15.7 8.6-.3.3-2.2-.3-4.4-1.4-5.6-2.9-10.2-3.9-29-6.7-62.7-9.2-126.5-9.3-189.3-.4-17.7 2.5-25.8 4.3-31.2 6.9-4.9 2.4-6 2-2.1-.8 6.9-4.9 14.2-7.1 31-9.6 47.3-7 96.2-8.7 145.3-5zm-15.5 4.9c25.7 1.1 72 6.6 83.2 10 8.7 2.7 15 7 18.3 12.8 10 17 26.7 55.4 25.5 58.6-.4 1-2.4-3.1-5.6-11.4-2.7-7.2-8.3-19.9-12.5-28.4-12.1-24.6-17.2-28.4-43.9-32.6-8.8-1.4-18-2.7-20.5-3-32.4-3.4-52.1-4.5-79-4.5-33.3 0-65.6 2.5-98.5 7.5-18.9 2.9-25.9 5.8-32.7 13.4-5.1 5.7-16.4 28-23.4 46.3-4.5 11.7-6.4 15.1-6.4 11.4 0-4.5 19.3-47 26.9-59.3 4.7-7.5 14.4-11.1 39.4-14.7 45.5-6.6 78.1-8.1 129.2-6.1zM252 44c40.8 2.7 74.6 7.3 83.7 11.5 2.8 1.3 7.2 4.3 9.5 6.7 6.3 6.2 18 29.5 26.3 52.3l3.3 9H216.4c-157.9 0-158.4 0-157.8-2 2-6.5 11.5-28.9 17-40.2C88.2 55.7 92.1 53.6 136 48.1c13.4-1.7 31.8-3.4 49.5-4.4 12.2-.8 53.3-.6 66.5.3zM44.4 95.2c2.2 2 2.7 3.6 3.6 11.3.5 4.9 1 10.5 1 12.2v3.3h-7.7c-11 0-25.1-2-27.4-3.9-2.4-1.9-3.8-7.6-3.9-14.9 0-4.3.5-5.7 2.5-7.7 2.3-2.4 2.9-2.5 15.9-2.5 12.6 0 13.7.2 16 2.2zm375.7.7c2.2 2.3 2.9 3.9 2.9 7 0 6.9-2 14-4.4 15.6-2.5 1.7-16.8 3.5-27.3 3.5H384v-4.8c.1-2.6.5-8.1 1-12.2.7-6.2 1.2-7.8 3.5-9.7 2.4-2.1 3.5-2.3 15.6-2.3h13.1l2.9 2.9zM53.5 122.2c.5 1.3.3 1.8-.9 1.8-1.3 0-1.6-1.1-1.5-5.8.1-5.5.2-5.6.9-1.7.4 2.2 1 4.8 1.5 5.7zm328.5-3.7c0 4.4-.3 5.5-1.6 5.5-1.1 0-1.4-.5-.9-1.8.4-.9.9-3.4 1.2-5.5.8-5.3 1.3-4.6 1.3 1.8zm-336.4 6.8c-1 .7-3.4 2.2-5.3 3.5-2 1.3-3.6 2.2-3.8 2-.1-.2-.5-1.8-.8-3.6l-.6-3.2 6.2.1c5.2 0 5.9.2 4.3 1.2zm351.6 2.2c-.2 1.9-.5 3.5-.7 3.5-.1 0-2.9-1.6-6.1-3.5l-5.8-3.5h13l-.4 3.5zm-226.6 6.2c6.3 9.5 22.4 40.3 22.4 42.8 0 1.3-4.6 1.5-37.5 1.5-34.9 0-37.6-.1-38.1-1.8-4.4-12.9-13.8-26.5-27.6-39.7L79 126.1l6.2-.4c3.5-.2 22.8-.4 43-.5l36.6-.2 5.8 8.7zM258 126c-1.9 1.2-80.7 1.2-83.5 0-1.2-.5 16.3-.9 41.5-.9 28.4-.1 43 .3 42 .9zm88.8-.1 7.3.6-7.1 6c-12.9 10.8-24.2 25.8-29.6 38.8l-2.8 6.7h-37.8c-20.8 0-37.8-.2-37.8-.4s2.2-5.1 4.9-10.7c5.2-11.2 14.1-27 20.3-36.2l3.9-5.7 35.7.1c19.6.1 39 .4 43 .8zm-290.7 3.2c1.4 4.8 1 8.9-.8 8.9-3.3 0-9.8 4.8-12.3 9.2-2.4 4.1-2.5 5-2.3 17.5L41 178h-5.2l.7-9.3c.4-5 1.1-12.1 1.5-15.7.5-3.5.7-6.6.5-6.9-.3-.2-2.2.1-4.2.7s-3.8 1-4 .9c-.1-.2.8-2.5 2.1-5.2 3.2-6.7 9.3-12.3 15.8-14.6 6.2-2.2 7-2 7.9 1.2zm23.3.8c2.8 2.2 7.8 6.8 11.1 10.1l6 6.2-5-2.5c-8-4-18.2-6.7-25-6.7-3.5 0-6.6-.3-6.8-.8-.3-.4-.8-2.8-1.1-5.5l-.7-4.7h8.2c8 0 8.3.1 13.3 3.9zM181.5 140c5.1 12.1 9.5 23.7 9.5 24.8 0 .4-2.4-3.8-5.4-9.3-5.7-10.8-10.2-18.6-14.1-24.3-1.4-2-2.5-4-2.5-4.4 0-.3 1.8.1 4 .9 3.7 1.5 4.2 2.2 8.5 12.3zm78.9-7.3c-2.1 3.2-7.1 11.6-11.1 18.8-4 7.1-7.3 12.7-7.3 12.3 0-1 5.4-14.6 10.1-25.4 3.6-8.2 4.4-9.3 7.7-10.6 2-.8 3.9-1.4 4-1.2.2.1-1.3 2.9-3.4 6.1zm114.1-3c-1.3 7.5-1.1 7.3-7.8 7.3-8.2.1-13.4 1.3-22.6 5.6l-7.6 3.5 5-5.2c2.8-2.8 7.6-7.3 10.8-10l5.8-4.9h17l-.6 3.7zm13.4-.4c5.2 2.6 11.5 9.5 13.1 14.4.7 1.9 1 3.6.8 3.8-.2.3-1.8-.1-3.6-.7-1.7-.7-3.4-1-3.7-.7-.2.3-.1 4.1.4 8.5.6 4.3 1.1 11.3 1.3 15.4.3 7.3.2 7.5-2.1 7.5h-2.3l.1-12.7c.2-14.1-.6-17.4-5.7-22.1-1.6-1.6-4.5-3.4-6.4-4-1.9-.7-3.5-1.5-3.7-2-.2-.4-.1-3 .3-5.8l.7-5 3.2.6c1.8.4 5.2 1.7 7.6 2.8zm-134.9.6c0 .4-1.4 3.9-3.1 7.6-3 6.8-10.2 25.6-13.4 35.3l-1.7 5.2-18.5-.2-18.5-.3L193 164c-5-14.2-7.2-19.8-11.4-29.3L179 129h37c20.4 0 37 .4 37 .9zm-220.4 7.3c-1.9 2.7-2.1 1.9-.4-1.8.7-1.4 1.4-2.1 1.6-1.5.2.6-.4 2.1-1.2 3.3zm368.3-1c1 3 .9 3.1-.4 1.4-.8-1.1-1.5-2.6-1.5-3.3 0-2.2.8-1.4 1.9 1.9zM67 140c-14 1.8-23 11.2-23 24 0 20.6 24.1 31.3 39.7 17.7 5.4-4.8 7.7-10.1 7.7-17.7-.1-10.2-4.8-17.5-14.4-22l-4.5-2.1 4 .6c7.3 1.1 21.8 8.9 26.5 14.2 3.6 4.1 11 16.8 11 18.9 0 .3-1.1-.1-2.5-1-1.3-.9-4.3-1.6-6.5-1.6-3.3 0-4.8.6-7.1 2.9-3.7 3.8-4.1 10.3-.7 14.6l2.2 2.8-20.2-.7c-26.2-.9-30.3-2.3-34.3-11.2-2.5-5.6-3-25.5-.7-29.9 3.9-7.3 10.4-10.5 21.3-10.3l7 .1-5.5.7zm310.2 0c4.8 1.4 9.7 5.5 11.4 9.7 1.8 4.1 1.9 22 .2 27.6-1.6 5.4-6.5 10.1-11.9 11.5-2.4.7-13.2 1.5-24 1.9l-19.7.8 2.4-2.8c4.2-5 2.5-14-3.1-16.5-4-1.8-8.9-1.4-11.9.9l-2.7 2.1 2.5-5.6c3.2-7.2 7.6-13.5 12.2-17.6 4.3-3.7 15.9-9.5 23.1-11.5 5.9-1.6 16.5-1.8 21.5-.5zm-302.6 3.5c12.1 3.6 18.5 18.7 12.6 30.1-8.6 16.8-31.4 16.2-39.3-1.1-5-10.8 1.2-24.9 12.7-29 5.1-1.8 7.9-1.8 14 0zm-38.7 8.7c0 1.8-.6 8.2-1.2 14.3l-1.2 11-4.7.3-4.8.3v-20.4l4.5-4.4c5.5-5.3 7.5-5.5 7.4-1.1zm368.2.7 4.3 3.8.4 10.7.4 10.6h-9.9l-.6-5.8c-.4-3.1-.9-9.6-1.3-14.5-.8-10.3-.1-10.9 6.7-4.8zm-292.6 22.6c5.3 5.3 1.5 14.9-5.8 14.9-5.2 0-8.7-3.5-8.7-8.6 0-5.2 3.5-8.8 8.5-8.8 2.5 0 4.4.8 6 2.5zm221.4.1c5 4.1 4 10.8-1.9 13.9-7.1 3.7-15.2-4.3-11.6-11.4 3-5.7 8.5-6.7 13.5-2.5zM33.8 200.3c.1 11.1.6 23.8 1.1 28.2.6 6.3.5 8.3-.5 9.6-.8.8-1.4 2.6-1.5 4-.1 4.5-2.5-4-4.7-16.7-2.5-13.9-4.2-30-4.2-39V180h9.5l.3 20.3zM44.4 183c1 1.7 3.5 4.2 5.7 5.7 4.3 2.8 9.2 3.4 46.6 4.8l18.2.7 2.7-2.7c2.3-2.3 2.6-3.2 2-7.1l-.6-4.4h75.8l2.2 5.7c1.3 3.2 2.6 6.2 3 6.6 1.7 1.9 1.7-1.2 0-6.6l-1.8-5.7h17.9c9.8 0 17.9.4 17.9.8 0 .5-.7 3.1-1.5 5.8-1.7 5.8-1.8 6.4-.6 6.4.5 0 2-2.8 3.3-6.3l2.4-6.2 38.1-.3 38.1-.2-.5 4.4c-.5 3.9-.2 4.8 2.1 7.1l2.7 2.7 18.2-.7c43-1.6 46.7-2.4 51.6-9.8 2-3.1 3-3.7 5.9-3.7h3.5l-.7 24.7c-.3 13.7-.9 26.4-1.2 28.3l-.6 3.6-30.5 2.8c-16.7 1.5-30.6 2.6-30.8 2.4-.2-.2.1-3.8.6-8 1.1-9.3-.2-13.7-5.3-16.8-3.3-2-4.7-2-113-2H106.2l-3 2.5c-4.7 3.9-5.6 7.3-4.5 16.2.6 4.3.9 7.9.7 8.1-.1.2-14-.9-30.8-2.4l-30.5-2.8-.6-2.7c-.9-3.8-2.1-39.2-1.7-47.2l.4-6.7h3.2c2.5 0 3.6.7 5 3zm364.2 9.2c-.8 13.4-3.5 33.2-6.2 44.8-1.6 7.1-1.8 7.3-2.7 4.5-.5-1.7-1.3-3.5-1.8-4-.4-.6-.4-5.3.1-10.5s1-17.9 1-28.3V180h10.3l-.7 12.2zm-290.6-6c0 2.2-3.5 5.8-5.6 5.8-1.2 0-1-.7 1-3.1 1.4-1.7 2.6-4 2.6-5.2 0-1.8.2-1.9 1-.7.5.8 1 2.3 1 3.2zm199-.8c0 .7 1.2 2.5 2.6 4 2.1 2 2.3 2.6 1 2.6-2.4 0-5.6-3.7-5.6-6.6 0-1.4.4-2.3 1-1.9.6.3 1 1.2 1 1.9zm9.6 32.6c2.6 1 2.6 1.1.9 3-1.7 1.9-3.2 2-38.6 2-34.6 0-37.3.1-45.6 2.2-12.8 3.2-40.6 3.2-54 0-8.7-2.1-11.6-2.2-45.6-2.2-34.5 0-36.5-.1-38.1-1.9-1.7-1.8-1.7-2 .1-3 2.5-1.4 217.1-1.5 220.9-.1zm-221.8 5.2c.7.7 1.2 3.9 1.2 7.5 0 3.4.5 9.6 1.1 13.7 1 7 1 7.7-.9 10.1l-2 2.6-.5-2.8c-2.1-11.2-3.7-27.3-3.1-30 .7-2.5 2.3-3 4.2-1.1zm227.2 1.2c.8 2.2-2.1 31.1-3.3 32.2-.2.3-1.2-.7-2.1-2.1-1.5-2.2-1.5-3.9-.4-16.2.6-7.6 1.6-14.4 2.1-15.1 1.4-1.8 2.7-1.5 3.7 1.2zm-143.7 2.4 3.8 1.3-.3 12.7-.3 12.7-15 .3c-9 .2-20.4-.3-28.6-1.3-7.5-.8-19-1.5-25.6-1.5h-12l-.7-3.3c-.4-1.7-1-7.6-1.3-13l-.6-9.8 38.4.3c27.4.3 39.5.7 42.2 1.6zm136.3 6.4c-.3 4.6-.9 10.4-1.3 13l-.6 4.8h-12.6c-6.9 0-18 .7-24.6 1.5-6.6.8-19.3 1.5-28.3 1.5h-16.3l.3-13.2.3-13.2 5-1.2c3.3-.8 17.4-1.2 41.9-1.3l36.9-.1-.7 8.2zM33.1 252c5.4 13.5 12.1 19 23.2 19 3.4 0 3.7.2 3.7 2.8 0 3.5 2.5 5.9 6.5 6.4l3 .3v14.1c0 10.5-.4 14.5-1.4 15.7-1.2 1.5-3.9 1.7-20.7 1.7H28l-1-2.6c-.6-1.5-1-18.4-.9-41.7l.1-39.2 1.7 7.5c1 4.1 3.3 11.3 5.2 16zm372.6 56.8-1.2 2.7-19.6.3-19.6.2-1.1-2.5c-.7-1.6-1.2-7.9-1.2-16V280h3.3c4.1 0 5.7-1.5 5.7-5.6v-3.1l6.6-.6c9.7-.7 13.7-3.8 19.1-14.7 2.3-4.6 5.2-12.7 6.5-17.9l2.3-9.5.3 38.8c.2 29.8-.1 39.4-1.1 41.4zM239 242v12h-45v-24h45v12zm-162.8 1.1 23.7 1.2.6 4.6c.4 2.5 1.1 7 1.6 10s.9 6.5.9 7.8v2.3H78.3c-14.2 0-26.4-.5-28.6-1.1-6.2-1.7-10.4-6.2-12.7-13.6-1.1-3.6-2-8.1-2-10v-3.6l8.8.6c4.8.4 19.4 1.2 32.4 1.8zm321.2-.3c.9 2.6-1 11.5-3.3 15.9-4.8 9.4-7.7 10.2-38.7 10.3-13.8 0-25.3-.2-25.6-.5-.5-.5 2.8-23.4 3.4-24 .3-.2 49.6-3 59-3.3 3.7-.2 4.8.2 5.2 1.6zM141.5 254c5 .5 14.6 1.7 21.5 2.5s21.7 2 32.8 2.7c23.4 1.3 51.9.2 78.2-3.3 8.5-1.1 23-2.3 32.2-2.6l16.7-.6 2 3.4c1.2 1.9 2.1 4.9 2.1 6.6v3.3H216c-88.4 0-111-.3-111-1.3 0-2.6 2-8 3.6-9.8 1.5-1.6 3.2-1.9 12.8-1.9 6.1 0 15.2.5 20.1 1zm91.2 3.2c-9.2.5-22.9.5-32.5 0-15.8-.9-15-.9 15.8-.9 30.1 0 31.3.1 16.7.9zM104 274.5v3.5H84c-18.7 0-20-.1-21-1.9-2.7-5.1-2.6-5.1 20-5.1h21v3.5zm265.8-.3-.3 3.3-20.2.3-20.3.2v-7h41.1l-.3 3.2z"/><path d="M355.4 142.4c-8.5 4-14.4 12.7-14.4 21.6 0 12.3 11.6 24 24 24 9.3 0 20.2-8 22.8-16.9 3.6-11.8-1.7-23.2-13.3-28.7-6.4-3.1-12.5-3.1-19.1 0zm16.2 1.1c11.4 3.4 17.8 15.8 14 27.3-2.8 8.3-11.9 15.2-20.2 15.2-5.5 0-12.3-3.1-16.2-7.5-8.2-9.3-8.1-20 .2-29.2 6.3-6.8 13-8.6 22.2-5.8zM63.8 252c-2.6 1.6-2.2 5.3.7 8 2.3 2.2 3.8 2.5 16.1 3.2 8.9.5 14.2.4 15.5-.2 2.4-1.4 2.5-6.1.2-8.8-1.6-1.9-3.3-2.2-16.3-2.7-9.7-.4-15.1-.2-16.2.5zm31 3.8c.6.9 1.2 2.4 1.2 3.4 0 2.1.2 2.1-12 1.9-14.6-.3-18-.9-19.3-3.8-.8-1.8-.8-2.6.1-3.2.7-.4 7.4-.6 15-.3 11 .3 13.9.7 15 2zM346 251.7c-8.6.5-11 1.9-11 6.9s1.7 5.4 17.3 4.6c12.4-.7 13.9-1 16.2-3.2 1.4-1.3 2.5-3.4 2.5-4.6 0-4.4-2.5-4.7-25-3.7zm22 2.9c1.1 1.3 1 1.9-.9 3.7-1.9 1.9-3.5 2.3-14.9 2.8-14.1.6-15.2.4-15.2-2 0-4.3 2-5 14-5.4 6.3-.1 12.5-.4 13.6-.5 1.2-.1 2.7.5 3.4 1.4zM775 84.2c-12.8 33.2-24.6 62.8-26.1 65.9-2.8 5.7-9.7 12.9-12.4 12.9-.8 0-1.5.9-1.5 2 0 1.9.7 2 19 2s19-.1 19-2c0-1.6-.7-2-3.5-2-4.7 0-9.8-2.2-11.9-5.1-3.3-4.8-2.2-11 5.6-31.7l5-13.2H792c25.5 0 24.8-.2 26.8 5.5.5 1.6 3.6 10 6.7 18.5 7.9 21.5 7.6 24.6-2.6 25.8-4 .5-5.5 1.1-5.7 2.4-.3 1.7 1.3 1.8 23.2 1.8 22.9 0 23.6-.1 23.6-2 0-1.3-.7-2-1.9-2-3.1 0-7-3.9-10-9.9-1.5-3.1-13.5-33.4-26.7-67.4-17.8-46-24.3-61.7-25.5-61.7-1.2 0-7.5 15.4-24.9 60.2zm29.3-4.1c5.9 15.7 10.7 28.8 10.7 29.2 0 .4-10.1.7-22.5.7s-22.5-.3-22.5-.6c0-2 22.5-59.3 23-58.7.4.5 5.5 13.7 11.3 29.4zM509 27.1c0 1.2 1.3 1.9 4.8 2.4 6.3.9 8.9 2.7 10.1 7.2 1.4 5 1.5 113.4.1 118.4s-4.1 7.1-10 7.7c-4 .4-5 .8-5 2.3 0 1.8 1.8 1.9 52.1 1.9h52.1l-.6-3.5c-.4-1.9-.7-10.9-.7-20 0-16.4-.1-16.6-2.2-16.3-1.8.3-2.3 1.4-3.4 8.7-2.5 15.9-7.8 23.1-19.1 25.7-6.8 1.6-31.1 1.8-36.5.3-7-1.9-7.2-2.7-7.6-35.2l-.3-28.9 11 .3c9.2.4 11.6.8 13.8 2.5 3.9 2.9 6.4 8.2 7.6 16.4 1 6.5 1.2 7 3.5 7 2 0 2.3-.4 1.8-2.1-.4-1.1-.7-14-.8-28.5 0-26.2 0-26.5-2.1-26.2-1.7.3-2.2 1.5-3.2 7.3-1.6 9.1-2.6 11.5-6.3 15.3-3.6 3.5-8 4.5-18.1 4l-6.5-.3-.3-20.5c-.2-11.3 0-24.3.3-28.9.6-7.5 1-8.8 3.5-11.3l2.8-2.8h17.8c10.6 0 19.2.5 21.6 1.2 7.4 2.2 12 10.5 13.5 24 .5 5.2.8 5.8 2.8 5.8 2.2 0 2.3-.2 2.3-14.5.1-8 .4-16 .7-17.8l.6-3.2h-50c-45.8 0-50.1.1-50.1 1.6zM621 27.2c0 1 1.1 1.9 2.9 2.3 4.4.9 8.7 5.9 12 13.9 1.5 3.9 13.1 33.5 25.6 65.8 25 64.5 24.5 63.6 28.3 53.5 8.7-22.8 46.3-119 47.6-121.5 2.5-4.8 7.2-9.8 10.6-11.2 1.6-.7 3-2 3-2.9 0-1.4-2.2-1.6-19-1.8-17.8-.2-19-.1-19 1.6 0 1.5 1.1 2 4.6 2.6 6.4.9 9.3 2.4 11 5.6 1.9 3.8 1.8 8.6-.6 16.1-3.8 12.1-34.4 90.8-35.1 90-1-1.1-37.6-99.2-38.4-102.9-.9-4.6 2.6-8 9.4-8.9 3.8-.5 5.1-1.1 5.1-2.3 0-1.4-2.5-1.6-24-1.6-21.8 0-24 .2-24 1.7zM714.1 206c-7.7 2.8-18.7 10-26.9 17.5-11.2 10.4-21.1 25-21.2 31.2 0 6.6 9.1 8.3 18.8 3.5 5.6-2.7 20.1-15.8 23.7-21.5 2.4-3.8.8-4.9-1.8-1.2-4.4 6.2-17.3 18.1-21.9 20.3-8.7 4-14.6 2.1-13.2-4.2 1.7-8.2 11.9-21.8 23.7-31.6 14.6-12.2 27.6-16.2 33.4-10.4 2.3 2.3 2.5 3.1 2.1 8.7-.3 3.4-1.8 9.4-3.4 13.4-2.5 6.3-3.6 7.8-10.7 14-9 7.8-24.2 24.6-33.5 36.8-12.6 16.9-15.8 27.1-7.7 25.1 8-2 37.7-38.9 49-60.8 2.6-5.1 5.2-8.4 8.3-10.8 7.4-5.7 13.5-9 17-9 2.9 0 3.2.3 3.2 2.9 0 6.6-12.4 27.1-32.1 53.1-6.9 9.1-13.1 17.5-13.7 18.7-1.5 2.7-1.5 6.3-.1 6.3.6 0 7.9-6.6 16.3-14.7 24.9-24.2 49.6-45.3 53.2-45.3 4 0 .6 5.6-17.9 29.7-8 10.4-13.7 21.2-13.7 25.9 0 2.5.7 3.8 2.6 5 2.2 1.5 3.2 1.6 7.7.5 6.5-1.5 16.5-7.1 21.9-12.2 6.1-5.8 4-5.7-3.7.1-8.6 6.5-13.6 9-17.9 9-2.9 0-3.7-.4-4.2-2.5-1-4 3.4-11.7 18.5-32.4 7.8-10.6 14.4-20.4 14.7-21.7 1.5-5.8-1.8-6.8-9.5-2.9-6.1 3.1-15 10.2-36.6 29.4-9.3 8.2-17.1 14.9-17.2 14.7-.2-.2 3-4.8 7-10.2 16.1-21.4 28.9-42.5 30.3-49.9.5-2.7.2-4.1-1.1-5.5-1-1.1-2.3-2-3-2-3 0-11.6 3.3-16.9 6.5-4.4 2.7-5.7 3.1-5.3 1.7 4.6-14.6 4.9-20.7 1.1-24.6-2.3-2.2-3.5-2.6-8.3-2.6-3.1.1-8 .9-11 2zm3.8 45.2c-6.2 12.2-23.3 36.1-33.3 46.5-5.3 5.7-9.6 8-9.6 5.3 0-1.9 4.8-10.6 8.6-15.6 8.5-11.3 34.5-40.4 36-40.4.3 0-.5 1.9-1.7 4.2zM536.5 208.3c-12.7 4.7-31.2 18.2-46.7 34l-9.7 9.8-8.5 1.2c-5.7.7-8.6 1.6-8.6 2.4 0 1.5 4.7 1.7 10.3.4 2-.5 3.7-.7 3.7-.4 0 .2-2.1 3.1-4.6 6.4-14.4 18.7-20.5 36-15.9 44.8 3.3 6.6 17.5 8.5 30.5 4.1 11.7-3.9 29.9-14.7 27.4-16.3-.5-.3-4.1 1.5-7.9 3.9-3.9 2.5-9.9 6-13.5 7.7-5.8 2.9-7.3 3.2-15.6 3.2-7.6 0-9.5-.3-11.3-1.9-7.4-6.7-2.3-23.2 13.8-44.7 7.8-10.4 8-10.6 15.3-13.3 31.3-12.1 65-35.9 59.7-42.2-1.8-2.2-11.4-1.7-18.4.9zm9.9 1.3c8.2 3.1-19.5 24.3-46.1 35.3-4 1.6-7.3 2.6-7.3 2.2 0-1.5 20.2-20.2 28.3-26.3 9.2-6.8 14-9.4 19.4-10.7 2.1-.5 3.9-.9 4-1 .1-.1.8.2 1.7.5zM863 242.1c-12.5 1.4-32.4 4.9-33.4 6-1.3 1.2.3 2.7 4.2 3.9 2.6.7 3.6.5 5-1 2.6-2.7 27.2-6.6 27.2-4.2 0 .4-4.4 5.9-9.8 12.2-5.3 6.3-12.1 14.5-15 18.2-5.6 7.1-13.5 13.8-25.9 21.8-11.7 7.7-16 6.3-9.8-3.1 3.2-4.6 3.7-6.9 1.6-6.9-.5 0-4.3 2.9-8.6 6.5s-8.5 6.5-9.2 6.5c-4.9 0-.2-9.2 8.9-17.4 6.5-5.9 11.8-8.2 14.9-6.5 2.6 1.3 2.4 2.3-1.1 6.2-1.6 1.9-2.7 3.7-2.4 4 1 1 6-2 8.8-5.3 5.1-6.2 2.4-9.7-6.3-8-8.9 1.7-20.9 9.2-27 16.8-9.9 12.6-5.6 19.8 6.7 11.2 5.2-3.7 6.1-3.7 5.4-.5-.5 3 1.3 5.5 4 5.5 2.9 0 11.3-4.6 21.5-11.6l9.2-6.4-2.4 5.2c-4.4 9.4-2.8 14.2 3.9 11.4 7-2.9 35.8-23.7 33.7-24.4-.6-.2-4.6 2.3-8.9 5.6-19 14.6-26.3 18-24.7 11.4 1.7-7.1 8.5-16.9 26.3-37.6 6.1-7.1 10.2-12.8 10.2-14.1 0-1.9.7-2.2 5.8-2.6 3.1-.2 14-.3 24-.1 17.3.3 18.4.2 18-1.5-.3-1.7-2-1.8-23.3-1.9-12.7-.1-26.8.3-31.5.7zM582.1 268.9c-2.1 2-3.1 3.8-3.1 5.8s-1.1 3.9-3.7 6.5c-5.7 5.4-22 17.4-27.8 20.4-8.4 4.4-11.3 1.2-5.4-5.9 1.8-2.2 2.8-4.4 2.5-5.3-.5-1.3-.9-1.3-3.5.1-1.6.8-3.3 2-3.6 2.5-1.2 2-10.7 9-12.1 9-2 0-1.7-3.9.5-7.6 3.1-5 12.3-13.6 16.9-15.6 7.5-3.4 10.7 0 5.7 6-3 3.5-3.1 4.4-.7 3.5 3.2-1.2 6.7-4.1 8.4-7.1 1.7-2.8 1.7-3.1 0-5.1-1.6-2-2.1-2.1-7.2-1.1-8 1.5-14.8 5.2-22.4 12.1-16.6 15.2-12.9 27.1 4.3 14l3.5-2.6-.7 2.4c-1 3.9.8 7.1 4 7.1 4.6 0 22.6-11.4 36.1-22.7 5.2-4.5 8.2-5.1 8.2-1.7 0 .9-2.7 4.2-5.9 7.3-4.4 4.2-6.1 6.7-6.6 9.3-.4 2-.4 4.1 0 4.7 1 1.7 5.2 1.3 9.8-1 5.9-3 30.1-21.3 28.8-21.7-.6-.2-6.2 3.4-12.4 8.1-6.1 4.6-12.6 9.2-14.4 10.1-7.8 3.9-8.4.1-1.3-7.7 5.1-5.6 5.8-7.6 4-12.2-.9-2.3-.6-3.4 2-7.2 4.8-7.1 2.1-10-3.9-4.4zM613.2 290.7c.3 1.6 2.3 1.8 21.6 2.1 17.6.2 21.2 0 21.2-1.2 0-2.1-4.7-2.6-24.7-2.6-17 0-18.4.1-18.1 1.7z"/></g></svg>