<svg version="1.0" xmlns="http://www.w3.org/2000/svg" width="40" height="40" viewBox="0 0 512 512"><g fill="#fff"><path d="M216.4 46.1c-106 4.6-169.5 32.2-197.7 85.8C7.7 152.7 1 180.4 1 204.6v8.4h103.8l.6-3.8c.3-2 .8-6 1.2-8.7 1.7-13.9 6.5-29.5 11.9-38.9 12.3-21.8 28.8-32 60.5-37.3 20.8-3.5 134.5-2.6 157.7 1.2 10.1 1.6 23.6 5.6 29.8 8.8 10.1 5.1 19.1 13.7 25.4 24.2 6.4 10.5 12.1 30.2 13.6 46.7l.7 7.8h105.6l-.4-8.3c-1.6-28.8-6.4-49.6-16-69.1-25.1-50.5-77.7-78.2-165.4-87.1-32.3-3.2-74.8-4.1-113.6-2.4z"/><path d="M153 178.7c-5.6 1.1-6 2.3-6 18.7v15.1l-6.1 6.9C114 250 54.2 331.1 40.1 356.1l-3.2 5.7.3 47.5c.3 46.2.4 47.6 2.4 50.3 1.1 1.5 3.3 3.7 4.8 4.8l2.7 2.1 202.7.3 202.7.2 4.4-2.2c8.3-4.3 8.1-2.7 8.1-56.9v-47.6l-6.8-10.9c-18.5-29.7-67.7-96.1-93.9-126.5l-8.3-9.7v-14c0-7.7-.4-15.2-1-16.6-1.4-3.9-6.8-4.8-26.5-4.4-14.3.2-17.5.6-19.8 2.1L306 182v26H196v-12.8c0-17.5 1.2-16.7-22.4-16.9-9.9 0-19.2.1-20.6.4zm43.9 68.8c5.4 2.8 8.1 7.1 8.1 13 0 4.3-.5 6-2.6 8.5-5.3 6.2-11.8 7.6-18.4 3.9-4.8-2.7-7.2-6.9-7.2-12.6 0-10.1 11.4-17.4 20.1-12.8zm60.1.3c10.2 5.1 10.6 19.2.8 25.2-6.9 4.2-15.7 1.5-19.5-6-1.3-2.4-2.3-5.4-2.3-6.5 0-1.1 1-4.1 2.3-6.5 3.7-7.3 11.4-9.9 18.7-6.2zm61.9.9c4 3 6.3 8.1 5.8 13.2-.9 8.1-7.5 13.6-15.6 12.8-14.3-1.5-17.8-20.3-5-27 4.2-2.2 11-1.8 14.8 1zm-121.3 48.9c5.2 2.5 7.7 7.4 7.2 14-.4 4.3-1.1 6.1-3.3 8.4-12.1 12.7-31.6-2.7-22.4-17.6 3.6-5.9 11.7-8 18.5-4.8zm60.2.4c15.6 9.6 3.3 33-13.2 25.1-8-3.9-10.7-13.5-5.8-20.9 3.9-6 12.8-8 19-4.2zm60.3.3c9.6 6.4 8.6 20.3-1.7 25.2-9.9 4.7-21.6-3.9-20.1-14.7 1.4-10.7 13.1-16.3 21.8-10.5zM198.7 348c8.4 5.1 8.5 18.2.2 24-3.8 2.8-11.7 3-15.4.6-3.9-2.6-6.5-7.5-6.5-12.4 0-8.5 5.6-14.2 14-14.2 2.7 0 5.8.8 7.7 2zm59.8 0c8.8 5.5 8.4 19.9-.8 24.6-9.2 4.8-20.1-.9-21.3-11.2-1.4-11.3 12.2-19.5 22.1-13.4zm61.1 1.1c5.5 5 6.7 11.8 3.3 17.9-7.2 12.7-26.9 7.7-26.9-7 0-3.7 1.9-7.7 5.2-10.6 3.3-3 4.6-3.4 10.6-3 3.8.2 5.9.9 7.8 2.7zM.3 231.2c.9 8.4 2.1 12.5 5.6 18 3.6 5.7 10.6 9.3 20.6 10.8 9.3 1.3 44.3 1.3 52.5-.1 17-2.7 24.5-10.7 25.7-27.5l.6-7.4H-.3l.6 6.2zM406.4 226.5c-.9 2.3 1.5 14.3 3.6 18.5 2 3.9 7.5 8.7 12.1 10.7 6.3 2.7 17.9 3.5 42 3 27.4-.5 31.8-1.4 38.6-7.2 4.9-4.2 8-11 8.9-19.8l.7-6.7h-52.7c-45.8 0-52.7.2-53.2 1.5z"/></g></svg>