<?xml version="1.0" standalone="no"?>
<!DOCTYPE svg PUBLIC "-//W3C//DTD SVG 20010904//EN"
 "http://www.w3.org/TR/2001/REC-SVG-20010904/DTD/svg10.dtd">
<svg version="1.0" xmlns="http://www.w3.org/2000/svg"
 width="120.000000pt" height="40.000000pt" viewBox="0 0 932.000000 328.000000"
 preserveAspectRatio="xMidYMid meet">

<g transform="translate(0.000000,328.000000) scale(0.100000,-0.100000)"
fill="#ffffff" stroke="none">
<path d="M1820 3029 c-296 -16 -645 -57 -740 -86 -73 -23 -166 -88 -213 -149
-60 -79 -175 -276 -249 -428 -38 -78 -74 -152 -81 -165 -21 -42 -37 -37 -37
11 0 64 -17 114 -47 138 -23 18 -40 20 -167 20 -118 0 -144 -3 -162 -18 -33
-26 -44 -55 -44 -114 1 -125 32 -171 122 -182 144 -18 149 -21 115 -88 -23
-46 -47 -133 -47 -172 0 -17 -10 -40 -22 -54 -29 -30 -36 -112 -26 -312 4 -80
10 -390 14 -690 5 -446 8 -549 20 -572 l15 -28 210 0 210 0 15 35 c10 24 14
74 14 169 l0 136 168 2 167 3 3 53 3 52 1104 0 1104 0 3 -52 3 -53 165 -5 165
-5 5 -145 c3 -91 10 -153 18 -167 13 -23 15 -23 222 -23 207 0 209 0 222 23
10 17 15 158 21 587 15 987 15 965 -9 992 -13 15 -25 48 -32 91 -6 37 -22 92
-36 122 -38 83 -35 85 106 100 75 8 103 31 117 96 14 66 14 132 -1 164 -21 46
-54 55 -202 55 -134 0 -136 0 -166 -27 -21 -20 -32 -40 -36 -68 -11 -88 -15
-105 -24 -100 -4 3 -49 87 -98 188 -101 204 -226 411 -283 468 -90 90 -166
120 -379 148 -422 55 -833 72 -1230 50z m635 -19 c331 -16 693 -56 784 -87 47
-15 115 -52 109 -59 -2 -2 -25 3 -50 11 -49 14 -361 57 -545 75 -343 32 -863
30 -1228 -5 -210 -21 -469 -60 -522 -79 -24 -8 -43 -13 -43 -11 0 8 87 54 131
68 25 9 115 25 200 36 408 54 778 70 1164 51z m205 -76 c254 -19 554 -58 640
-84 64 -19 167 -76 157 -86 -3 -3 -22 3 -44 14 -56 29 -102 39 -290 67 -627
92 -1265 93 -1893 4 -177 -25 -258 -43 -312 -69 -49 -24 -60 -20 -21 8 69 49
142 71 310 96 473 70 962 87 1453 50z m-155 -49 c257 -11 720 -66 832 -100 87
-27 150 -70 183 -128 100 -170 267 -554 255 -586 -4 -10 -24 31 -56 114 -27
72 -83 199 -125 284 -121 246 -172 284 -439 326 -88 14 -180 27 -205 30 -324
34 -521 45 -790 45 -333 0 -656 -25 -985 -75 -189 -29 -259 -58 -327 -134 -51
-57 -164 -280 -234 -463 -45 -117 -64 -151 -64 -114 0 45 193 470 269 593 47
75 144 111 394 147 455 66 781 81 1292 61z m15 -45 c408 -27 746 -73 837 -115
28 -13 72 -43 95 -67 63 -62 180 -295 263 -523 l33 -90 -1584 0 c-1579 0
-1584 0 -1578 20 20 65 115 289 170 402 126 256 165 277 604 332 134 17 318
34 495 44 122 8 533 6 665 -3z m-2076 -512 c22 -20 27 -36 36 -113 5 -49 10
-105 10 -122 l0 -33 -77 0 c-110 0 -251 20 -274 39 -24 19 -38 76 -39 149 0
43 5 57 25 77 23 24 29 25 159 25 126 0 137 -2 160 -22z m3757 -7 c22 -23 29
-39 29 -70 0 -69 -20 -140 -44 -156 -25 -17 -168 -35 -273 -35 l-73 0 0 48 c1
26 5 81 10 122 7 62 12 78 35 97 24 21 35 23 156 23 l131 0 29 -29z m-3666
-263 c5 -13 3 -18 -9 -18 -13 0 -16 11 -15 58 1 55 2 56 9 17 4 -22 10 -48 15
-57z m3285 37 c0 -44 -3 -55 -16 -55 -11 0 -14 5 -9 18 4 9 9 34 12 55 8 53
13 46 13 -18z m-3364 -68 c-10 -7 -34 -22 -53 -35 -20 -13 -36 -22 -38 -20 -1
2 -5 18 -8 36 l-6 32 62 -1 c52 0 59 -2 43 -12z m3516 -22 c-2 -19 -5 -35 -7
-35 -1 0 -29 16 -61 35 l-58 35 65 0 65 0 -4 -35z m-2266 -62 c63 -95 224
-403 224 -428 0 -13 -46 -15 -375 -15 -349 0 -376 1 -381 18 -44 129 -138 265
-276 397 l-108 104 62 4 c35 2 228 4 430 5 l366 2 58 -87z m874 77 c-19 -12
-807 -12 -835 0 -12 5 163 9 415 9 284 1 430 -3 420 -9z m888 1 l73 -6 -71
-60 c-129 -108 -242 -258 -296 -388 l-28 -67 -378 0 c-208 0 -378 2 -378 4 0
2 22 51 49 107 52 112 141 270 203 362 l39 57 357 -1 c196 -1 390 -4 430 -8z
m-2907 -32 c14 -48 10 -89 -8 -89 -33 0 -98 -48 -123 -92 -24 -41 -25 -50 -23
-175 l3 -133 -26 0 -26 0 7 93 c4 50 11 121 15 157 5 35 7 66 5 69 -3 2 -22
-1 -42 -7 -20 -6 -38 -10 -40 -9 -1 2 8 25 21 52 32 67 93 123 158 146 62 22
70 20 79 -12z m233 -8 c28 -22 78 -68 111 -101 l60 -62 -50 25 c-80 40 -182
67 -250 67 -35 0 -66 3 -68 8 -3 4 -8 28 -11 55 l-7 47 82 0 c80 0 83 -1 133
-39z m1021 -101 c51 -121 95 -237 95 -248 0 -4 -24 38 -54 93 -57 108 -102
186 -141 243 -14 20 -25 40 -25 44 0 3 18 -1 40 -9 37 -15 42 -22 85 -123z
m789 73 c-21 -32 -71 -116 -111 -188 -40 -71 -73 -127 -73 -123 0 10 54 146
101 254 36 82 44 93 77 106 20 8 39 14 40 12 2 -1 -13 -29 -34 -61z m1141 30
c-13 -75 -11 -73 -78 -73 -82 -1 -134 -13 -226 -56 l-76 -35 50 52 c28 28 76
73 108 100 l58 49 85 0 85 0 -6 -37z m134 4 c52 -26 115 -95 131 -144 7 -19
10 -36 8 -38 -2 -3 -18 1 -36 7 -17 7 -34 10 -37 7 -2 -3 -1 -41 4 -85 6 -43
11 -113 13 -154 3 -73 2 -75 -21 -75 l-23 0 1 127 c2 141 -6 174 -57 221 -16
16 -45 34 -64 40 -19 7 -35 15 -37 20 -2 4 -1 30 3 58 l7 50 32 -6 c18 -4 52
-17 76 -28z m-1349 -6 c0 -4 -14 -39 -31 -76 -30 -68 -102 -256 -134 -353
l-17 -52 -185 2 -185 3 -48 135 c-50 142 -72 198 -114 293 l-26 57 370 0 c204
0 370 -4 370 -9z m-2204 -73 c-19 -27 -21 -19 -4 18 7 14 14 21 16 15 2 -6 -4
-21 -12 -33z m3683 10 c10 -30 9 -31 -4 -14 -8 11 -15 26 -15 33 0 22 8 14 19
-19z m-3339 -38 c-140 -18 -230 -112 -230 -240 0 -206 241 -313 397 -177 54
48 77 101 77 177 -1 102 -48 175 -144 220 l-45 21 40 -6 c73 -11 218 -89 265
-142 36 -41 110 -168 110 -189 0 -3 -11 1 -25 10 -13 9 -43 16 -65 16 -33 0
-48 -6 -71 -29 -37 -38 -41 -103 -7 -146 l22 -28 -202 7 c-262 9 -303 23 -343
112 -25 56 -30 255 -7 299 39 73 104 105 213 103 l70 -1 -55 -7z m3102 0 c48
-14 97 -55 114 -97 18 -41 19 -220 2 -276 -16 -54 -65 -101 -119 -115 -24 -7
-132 -15 -240 -19 l-197 -8 24 28 c42 50 25 140 -31 165 -40 18 -89 14 -119
-9 l-27 -21 25 56 c32 72 76 135 122 176 43 37 159 95 231 115 59 16 165 18
215 5z m-3026 -35 c121 -36 185 -187 126 -301 -86 -168 -314 -162 -393 11 -50
108 12 249 127 290 51 18 79 18 140 0z m-387 -87 c0 -18 -6 -82 -12 -143 l-12
-110 -47 -3 -48 -3 0 102 0 102 45 44 c55 53 75 55 74 11z m3682 -7 l43 -38 4
-107 4 -106 -50 0 -49 0 -6 58 c-4 31 -9 96 -13 145 -8 103 -1 109 67 48z
m-2926 -226 c53 -53 15 -149 -58 -149 -52 0 -87 35 -87 86 0 52 35 88 85 88
25 0 44 -8 60 -25z m2214 -1 c50 -41 40 -108 -19 -139 -71 -37 -152 43 -116
114 30 57 85 67 135 25z m-2991 -247 c1 -111 6 -238 11 -282 6 -63 5 -83 -5
-96 -8 -8 -14 -26 -15 -40 -1 -45 -25 40 -47 167 -25 139 -42 300 -42 390 l0
64 48 0 47 0 3 -203z m106 173 c10 -17 35 -42 57 -57 43 -28 92 -34 466 -48
l182 -7 27 27 c23 23 26 32 20 71 l-6 44 379 0 379 0 22 -57 c13 -32 26 -62
30 -66 17 -19 17 12 0 66 l-18 57 179 0 c98 0 179 -4 179 -8 0 -5 -7 -31 -15
-58 -17 -58 -18 -64 -6 -64 5 0 20 28 33 63 l24 62 381 3 381 2 -5 -44 c-5
-39 -2 -48 21 -71 l27 -27 182 7 c430 16 467 24 516 98 20 31 30 37 59 37 l35
0 -7 -247 c-3 -137 -9 -264 -12 -283 l-6 -36 -305 -28 c-167 -15 -306 -26
-308 -24 -2 2 1 38 6 80 11 93 -2 137 -53 168 -33 20 -47 20 -1130 20 l-1096
0 -30 -25 c-47 -39 -56 -73 -45 -162 6 -43 9 -79 7 -81 -1 -2 -140 9 -308 24
l-305 28 -6 27 c-9 38 -21 392 -17 472 l4 67 32 0 c25 0 36 -7 50 -30z m3642
-92 c-8 -134 -35 -332 -62 -448 -16 -71 -18 -73 -27 -45 -5 17 -13 35 -18 40
-4 6 -4 53 1 105 5 52 10 179 10 283 l0 187 51 0 52 0 -7 -122z m-2906 60 c0
-22 -35 -58 -56 -58 -12 0 -10 7 10 31 14 17 26 40 26 52 0 18 2 19 10 7 5 -8
10 -23 10 -32z m1990 8 c0 -7 12 -25 26 -40 21 -20 23 -26 10 -26 -24 0 -56
37 -56 66 0 14 4 23 10 19 6 -3 10 -12 10 -19z m96 -326 c26 -10 26 -11 9 -30
-17 -19 -32 -20 -386 -20 -346 0 -373 -1 -456 -22 -128 -32 -406 -32 -540 0
-87 21 -116 22 -456 22 -345 0 -365 1 -381 19 -17 18 -17 20 1 30 25 14 2171
15 2209 1z m-2218 -52 c7 -7 12 -39 12 -75 0 -34 5 -96 11 -137 10 -70 10 -77
-9 -101 l-20 -26 -5 28 c-21 112 -37 273 -31 300 7 25 23 30 42 11z m2272 -12
c8 -22 -21 -311 -33 -322 -2 -3 -12 7 -21 21 -15 22 -15 39 -4 162 6 76 16
144 21 151 14 18 27 15 37 -12z m-1437 -24 l38 -13 -3 -127 -3 -127 -150 -3
c-90 -2 -204 3 -286 13 -75 8 -190 15 -256 15 l-120 0 -7 33 c-4 17 -10 76
-13 130 l-6 98 384 -3 c274 -3 395 -7 422 -16z m1363 -64 c-3 -46 -9 -104 -13
-130 l-6 -48 -126 0 c-69 0 -180 -7 -246 -15 -66 -8 -193 -15 -283 -15 l-163
0 3 132 3 132 50 12 c33 8 174 12 419 13 l369 1 -7 -82z m-2915 -188 c54 -135
121 -190 232 -190 34 0 37 -2 37 -28 0 -35 25 -59 65 -64 l30 -3 0 -141 c0
-105 -4 -145 -14 -157 -12 -15 -39 -17 -207 -17 l-194 0 -10 26 c-6 15 -10
184 -9 417 l1 392 17 -75 c10 -41 33 -113 52 -160z m3726 -568 l-12 -27 -196
-3 -196 -2 -11 25 c-7 16 -12 79 -12 160 l0 135 33 0 c41 0 57 15 57 56 l0 31
66 6 c97 7 137 38 191 147 23 46 52 127 65 179 l23 95 3 -388 c2 -298 -1 -394
-11 -414z m-1667 668 l0 -120 -225 0 -225 0 0 120 0 120 225 0 225 0 0 -120z
m-1628 -11 l237 -12 6 -46 c4 -25 11 -70 16 -100 5 -30 9 -65 9 -78 l0 -23
-247 0 c-142 0 -264 5 -286 11 -62 17 -104 62 -127 136 -11 36 -20 81 -20 100
l0 36 88 -6 c48 -4 194 -12 324 -18z m3212 3 c9 -26 -10 -115 -33 -159 -48
-94 -77 -102 -387 -103 -138 0 -253 2 -256 5 -5 5 28 234 34 240 3 2 496 30
590 33 37 2 48 -2 52 -16z m-2559 -112 c50 -5 146 -17 215 -25 69 -8 217 -20
328 -27 234 -13 519 -2 782 33 85 11 230 23 322 26 l167 6 20 -34 c12 -19 21
-49 21 -66 l0 -33 -1110 0 c-884 0 -1110 3 -1110 13 0 26 20 80 36 98 15 16
32 19 128 19 61 0 152 -5 201 -10z m912 -32 c-92 -5 -229 -5 -325 0 -158 9
-150 9 158 9 301 0 313 -1 167 -9z m-1287 -173 l0 -35 -200 0 c-187 0 -200 1
-210 19 -27 51 -26 51 200 51 l210 0 0 -35z m2658 3 l-3 -33 -202 -3 -203 -2
0 35 0 35 206 0 205 0 -3 -32z"/>
<path d="M3554 1856 c-85 -40 -144 -127 -144 -216 0 -123 116 -240 240 -240
93 0 202 80 228 169 36 118 -17 232 -133 287 -64 31 -125 31 -191 0z m162 -11
c114 -34 178 -158 140 -273 -28 -83 -119 -152 -202 -152 -55 0 -123 31 -162
75 -82 93 -81 200 2 292 63 68 130 86 222 58z"/>
<path d="M638 760 c-26 -16 -22 -53 7 -80 23 -22 38 -25 161 -32 89 -5 142 -4
155 2 24 14 25 61 2 88 -16 19 -33 22 -163 27 -97 4 -151 2 -162 -5z m310 -38
c6 -9 12 -24 12 -34 0 -21 2 -21 -120 -19 -146 3 -180 9 -193 38 -8 18 -8 26
1 32 7 4 74 6 150 3 110 -3 139 -7 150 -20z"/>
<path d="M3460 763 c-86 -5 -110 -19 -110 -69 0 -50 17 -54 173 -46 124 7 139
10 162 32 14 13 25 34 25 46 0 44 -25 47 -250 37z m220 -29 c11 -13 10 -19 -9
-37 -19 -19 -35 -23 -149 -28 -141 -6 -152 -4 -152 20 0 43 20 50 140 54 63 1
125 4 136 5 12 1 27 -5 34 -14z"/>
<path d="M7750 2438 c-128 -332 -246 -628 -261 -659 -28 -57 -97 -129 -124
-129 -8 0 -15 -9 -15 -20 0 -19 7 -20 190 -20 183 0 190 1 190 20 0 16 -7 20
-35 20 -47 0 -98 22 -119 51 -33 48 -22 110 56 317 l50 132 238 0 c255 0 248
2 268 -55 5 -16 36 -100 67 -185 79 -215 76 -246 -26 -258 -40 -5 -55 -11 -57
-24 -3 -17 13 -18 232 -18 229 0 236 1 236 20 0 13 -7 20 -19 20 -31 0 -70 39
-100 99 -15 31 -135 334 -267 674 -178 460 -243 617 -255 617 -12 0 -75 -154
-249 -602z m293 41 c59 -157 107 -288 107 -292 0 -4 -101 -7 -225 -7 -124 0
-225 3 -225 6 0 20 225 593 230 587 4 -5 55 -137 113 -294z"/>
<path d="M5090 3009 c0 -12 13 -19 48 -24 63 -9 89 -27 101 -72 14 -50 15
-1134 1 -1184 -14 -50 -41 -71 -100 -77 -40 -4 -50 -8 -50 -23 0 -18 18 -19
521 -19 l521 0 -6 35 c-4 19 -7 109 -7 200 0 164 -1 166 -22 163 -18 -3 -23
-14 -34 -87 -25 -159 -78 -231 -191 -257 -68 -16 -311 -18 -365 -3 -70 19 -72
27 -76 352 l-3 289 110 -3 c92 -4 116 -8 138 -25 39 -29 64 -82 76 -164 10
-65 12 -70 35 -70 20 0 23 4 18 21 -4 11 -7 140 -8 285 0 262 0 265 -21 262
-17 -3 -22 -15 -32 -73 -16 -91 -26 -115 -63 -153 -36 -35 -80 -45 -181 -40
l-65 3 -3 205 c-2 113 0 243 3 289 6 75 10 88 35 113 l28 28 178 0 c106 0 192
-5 216 -12 74 -22 120 -105 135 -240 5 -52 8 -58 28 -58 22 0 23 2 23 145 1
80 4 160 7 178 l6 32 -500 0 c-458 0 -501 -1 -501 -16z"/>
<path d="M6210 3008 c0 -10 11 -19 29 -23 44 -9 87 -59 120 -139 15 -39 131
-335 256 -658 250 -645 245 -636 283 -535 87 228 463 1190 476 1215 25 48 72
98 106 112 16 7 30 20 30 29 0 14 -22 16 -190 18 -178 2 -190 1 -190 -16 0
-15 11 -20 46 -26 64 -9 93 -24 110 -56 19 -38 18 -86 -6 -161 -38 -121 -344
-908 -351 -900 -10 11 -376 992 -384 1029 -9 46 26 80 94 89 38 5 51 11 51 23
0 14 -25 16 -240 16 -218 0 -240 -2 -240 -17z"/>
<path d="M7141 1220 c-77 -28 -187 -100 -269 -175 -112 -104 -211 -250 -212
-312 0 -66 91 -83 188 -35 56 27 201 158 237 215 24 38 8 49 -18 12 -44 -62
-173 -181 -219 -203 -87 -40 -146 -21 -132 42 17 82 119 218 237 316 146 122
276 162 334 104 23 -23 25 -31 21 -87 -3 -34 -18 -94 -34 -134 -25 -63 -36
-78 -107 -140 -90 -78 -242 -246 -335 -368 -126 -169 -158 -271 -77 -251 80
20 377 389 490 608 26 51 52 84 83 108 74 57 135 90 170 90 29 0 32 -3 32 -29
0 -66 -124 -271 -321 -531 -69 -91 -131 -175 -137 -187 -15 -27 -15 -63 -1
-63 6 0 79 66 163 147 249 242 496 453 532 453 40 0 6 -56 -179 -297 -80 -104
-137 -212 -137 -259 0 -25 7 -38 26 -50 22 -15 32 -16 77 -5 65 15 165 71 219
122 61 58 40 57 -37 -1 -86 -65 -136 -90 -179 -90 -29 0 -37 4 -42 25 -10 40
34 117 185 324 78 106 144 204 147 217 15 58 -18 68 -95 29 -61 -31 -150 -102
-366 -294 -93 -82 -171 -149 -172 -147 -2 2 30 48 70 102 161 214 289 425 303
499 5 27 2 41 -11 55 -10 11 -23 20 -30 20 -30 0 -116 -33 -169 -65 -44 -27
-57 -31 -53 -17 46 146 49 207 11 246 -23 22 -35 26 -83 26 -31 -1 -80 -9
-110 -20z m38 -452 c-62 -122 -233 -361 -333 -465 -53 -57 -96 -80 -96 -53 0
19 48 106 86 156 85 113 345 404 360 404 3 0 -5 -19 -17 -42z"/>
<path d="M5365 1197 c-127 -47 -312 -182 -467 -340 l-97 -98 -85 -12 c-57 -7
-86 -16 -86 -24 0 -15 47 -17 103 -4 20 5 37 7 37 4 0 -2 -21 -31 -46 -64
-144 -187 -205 -360 -159 -448 33 -66 175 -85 305 -41 117 39 299 147 274 163
-5 3 -41 -15 -79 -39 -39 -25 -99 -60 -135 -77 -58 -29 -73 -32 -156 -32 -76
0 -95 3 -113 19 -74 67 -23 232 138 447 78 104 80 106 153 133 313 121 650
359 597 422 -18 22 -114 17 -184 -9z m99 -13 c82 -31 -195 -243 -461 -353 -40
-16 -73 -26 -73 -22 0 15 202 202 283 263 92 68 140 94 194 107 21 5 39 9 40
10 1 1 8 -2 17 -5z"/>
<path d="M8630 859 c-125 -14 -324 -49 -334 -60 -13 -12 3 -27 42 -39 26 -7
36 -5 50 10 26 27 272 66 272 42 0 -4 -44 -59 -98 -122 -53 -63 -121 -145
-150 -182 -56 -71 -135 -138 -259 -218 -117 -77 -160 -63 -98 31 32 46 37 69
16 69 -5 0 -43 -29 -86 -65 -43 -36 -85 -65 -92 -65 -49 0 -2 92 89 174 65 59
118 82 149 65 26 -13 24 -23 -11 -62 -16 -19 -27 -37 -24 -40 10 -10 60 20 88
53 51 62 24 97 -63 80 -89 -17 -209 -92 -270 -168 -99 -126 -56 -198 67 -112
52 37 61 37 54 5 -5 -30 13 -55 40 -55 29 0 113 46 215 116 l92 64 -24 -52
c-44 -94 -28 -142 39 -114 70 29 358 237 337 244 -6 2 -46 -23 -89 -56 -190
-146 -263 -180 -247 -114 17 71 85 169 263 376 61 71 102 128 102 141 0 19 7
22 58 26 31 2 140 3 240 1 173 -3 184 -2 180 15 -3 17 -20 18 -233 19 -127 1
-268 -3 -315 -7z"/>
<path d="M5821 591 c-21 -20 -31 -38 -31 -58 0 -20 -11 -39 -37 -65 -57 -54
-220 -174 -278 -204 -84 -44 -113 -12 -54 59 18 22 28 44 25 53 -5 13 -9 13
-35 -1 -16 -8 -33 -20 -36 -25 -12 -20 -107 -90 -121 -90 -20 0 -17 39 5 76
31 50 123 136 169 156 75 34 107 0 57 -60 -30 -35 -31 -44 -7 -35 32 12 67 41
84 71 17 28 17 31 0 51 -16 20 -21 21 -72 11 -80 -15 -148 -52 -224 -121 -166
-152 -129 -271 43 -140 l35 26 -7 -24 c-10 -39 8 -71 40 -71 46 0 226 114 361
227 52 45 82 51 82 17 0 -9 -27 -42 -59 -73 -44 -42 -61 -67 -66 -93 -4 -20
-4 -41 0 -47 10 -17 52 -13 98 10 59 30 301 213 288 217 -6 2 -62 -34 -124
-81 -61 -46 -126 -92 -144 -101 -78 -39 -84 -1 -13 77 51 56 58 76 40 122 -9
23 -6 34 20 72 48 71 21 100 -39 44z"/>
<path d="M6132 373 c3 -16 23 -18 216 -21 176 -2 212 0 212 12 0 21 -47 26
-247 26 -170 0 -184 -1 -181 -17z"/>
</g>
</svg>
